<?xml version="1.0" standalone="no"?>
<!DOCTYPE svg PUBLIC "-//W3C//DTD SVG 20010904//EN"
 "http://www.w3.org/TR/2001/REC-SVG-20010904/DTD/svg10.dtd">
<svg version="1.0" xmlns="http://www.w3.org/2000/svg"
 width="1098.000000pt" height="1098.000000pt" viewBox="0 0 1098.000000 1098.000000"
 preserveAspectRatio="xMidYMid meet">
<metadata>
Created by potrace 1.11, written by Peter Selinger 2001-2013
</metadata>
<g transform="translate(0.000000,1098.000000) scale(0.100000,-0.100000)"
fill="#000000" stroke="none">
<path d="M161 10966 c-53 -19 -111 -74 -137 -130 l-24 -51 0 -5291 c0 -4014 3
-5299 12 -5325 19 -57 50 -96 103 -131 l50 -33 5320 0 c5150 0 5321 1 5357 18
52 26 87 64 115 123 l23 51 -2 5309 -3 5309 -23 37 c-31 50 -93 102 -139 116
-56 17 -10604 16 -10652 -2z"/>
</g>
</svg>
